<?xml version="1.0" standalone="no"?>
<!DOCTYPE svg PUBLIC "-//W3C//DTD SVG 20010904//EN"
 "http://www.w3.org/TR/2001/REC-SVG-20010904/DTD/svg10.dtd">
<svg version="1.0" xmlns="http://www.w3.org/2000/svg"
 width="500.000000pt" height="500.000000pt" viewBox="0 0 500.000000 500.000000"
 preserveAspectRatio="xMidYMid meet">
<metadata>
Created by potrace 1.14, written by Peter Selinger 2001-2017
</metadata>
<g transform="translate(0.000000,500.000000) scale(0.100000,-0.100000)"
fill="#000000" stroke="none">
<path d="M2865 4014 c-458 -51 -599 -83 -1219 -274 -182 -56 -360 -117 -397
-135 -180 -91 -322 -255 -410 -474 -142 -355 -169 -774 -69 -1074 155 -464
621 -795 1269 -903 47 -8 187 -19 311 -25 253 -12 376 -4 545 36 397 93 747
354 1018 758 80 119 224 406 261 522 53 166 84 472 67 671 -24 277 -89 467
-215 622 -119 149 -293 236 -519 261 -99 11 -576 22 -642 15z m715 -43 c157
-32 271 -85 364 -168 196 -176 299 -498 283 -887 -12 -298 -50 -455 -167 -694
-81 -167 -142 -269 -231 -387 -307 -411 -738 -664 -1179 -691 -122 -8 -497 11
-620 31 -593 97 -1046 402 -1219 821 -65 159 -76 227 -76 474 0 251 12 328 81
543 63 195 123 304 228 416 100 105 208 169 376 221 58 17 195 60 305 95 376
119 694 196 945 229 174 23 192 24 515 20 249 -3 316 -6 395 -23z"/>
<path d="M1705 3276 c-132 -57 -117 -249 23 -286 102 -27 192 41 192 146 0
114 -111 186 -215 140z m110 -22 c28 -18 55 -81 55 -130 0 -68 -44 -124 -96
-124 -28 0 -73 34 -89 66 -8 18 -15 58 -15 89 0 49 4 60 29 86 34 33 78 38
116 13z"/>
<path d="M2491 3268 c-58 -30 -83 -65 -88 -125 -6 -57 21 -105 76 -137 40 -23
132 -26 180 -6 29 12 31 16 31 63 0 36 5 54 18 63 15 12 7 13 -53 13 -51 0
-64 -3 -48 -9 25 -10 36 -42 31 -86 -4 -33 -41 -47 -91 -33 -134 37 -113 259
24 259 35 0 47 -6 75 -36 l34 -35 0 35 c0 43 -7 47 -84 53 -50 4 -69 0 -105
-19z"/>
<path d="M2913 3273 c-58 -160 -98 -251 -116 -265 -22 -17 -21 -18 36 -18 36
0 56 4 52 10 -3 6 -13 10 -21 10 -17 0 -18 25 -3 69 10 29 14 31 63 31 l53 0
12 -42 c12 -39 11 -43 -11 -60 -23 -17 -22 -18 52 -18 l75 0 -26 23 c-16 13
-43 64 -69 127 -59 147 -81 177 -97 133z m41 -121 c7 -20 4 -22 -33 -22 l-40
0 14 41 c8 22 17 45 21 51 6 10 22 -19 38 -70z"/>
<path d="M3720 3280 c-109 -4 -121 -7 -97 -17 l27 -13 0 -115 0 -115 -27 -13
c-24 -10 -10 -12 106 -15 73 -1 135 -1 136 0 1 2 5 21 9 43 l7 40 -28 -33
c-27 -32 -31 -33 -88 -30 l-60 3 -3 58 -3 57 49 0 c40 0 53 -4 65 -22 15 -22
16 -21 16 31 l1 54 -23 -21 c-16 -15 -36 -22 -65 -22 l-42 0 0 60 0 60 44 0
c55 0 96 -15 96 -34 0 -8 5 -18 10 -21 6 -4 10 10 10 34 0 23 -3 40 -7 39 -5
-1 -64 -5 -133 -8z"/>
<path d="M1148 3268 c19 -10 22 -18 21 -67 -2 -114 -14 -172 -40 -192 l-24
-19 60 1 c57 0 59 1 38 16 -19 13 -23 25 -23 72 0 31 3 73 7 95 l6 38 53 -111
c29 -61 57 -111 61 -111 5 0 31 53 58 118 l50 117 7 -45 c3 -25 7 -70 7 -101
1 -48 -3 -59 -21 -72 -22 -15 -19 -16 52 -16 l75 -1 -27 23 c-26 21 -28 28
-34 132 -7 110 -7 111 17 122 22 11 19 12 -26 12 -49 1 -50 0 -62 -36 -6 -21
-27 -72 -46 -113 l-35 -75 -44 91 c-25 50 -47 101 -51 113 -4 18 -12 21 -54
20 -42 0 -45 -2 -25 -11z"/>
<path d="M2038 3263 c21 -14 22 -23 22 -130 0 -106 -1 -115 -20 -120 -43 -11
-17 -23 50 -23 75 0 85 5 45 20 -23 9 -25 15 -25 65 0 76 23 74 74 -6 45 -70
84 -95 124 -80 15 5 20 10 11 10 -22 1 -131 126 -118 134 2 2 17 9 33 17 32
17 45 42 38 77 -7 39 -50 53 -159 52 -92 0 -97 -1 -75 -16z m164 -14 c26 -14
23 -64 -4 -83 -12 -9 -37 -16 -55 -16 l-33 0 0 61 0 61 37 -7 c21 -4 46 -11
55 -16z"/>
<path d="M3188 3260 l33 -20 -3 -107 -3 -108 -30 -15 -30 -15 32 -3 c18 -2 50
-2 70 0 l38 4 -27 12 c-28 11 -28 12 -28 109 l1 98 36 -40 c94 -103 176 -185
187 -185 8 0 10 36 8 124 l-3 124 27 21 27 21 -64 0 c-53 -1 -61 -3 -44 -12
32 -18 35 -28 34 -118 l0 -85 -102 108 c-100 106 -103 107 -147 107 l-45 0 33
-20z"/>
<path d="M1114 2641 c-2 -2 -4 -20 -4 -39 l0 -34 29 31 c20 22 38 31 60 31
l31 0 0 -125 c0 -125 0 -126 -25 -135 -14 -5 -25 -12 -25 -15 0 -3 35 -5 78
-5 74 1 76 1 50 16 l-28 15 0 124 0 125 35 0 c34 0 67 -22 77 -51 10 -26 19
-1 13 32 l-6 34 -140 0 c-78 0 -143 -2 -145 -4z"/>
<path d="M1980 2640 c-82 -3 -117 -8 -102 -13 21 -8 22 -13 22 -133 0 -117 -1
-124 -20 -124 -11 0 -20 -4 -20 -10 0 -6 50 -10 129 -10 140 0 141 1 141 58
l0 27 -26 -32 c-23 -31 -30 -33 -84 -33 -65 0 -70 5 -70 76 l0 44 49 0 c38 0
53 -5 64 -20 19 -27 27 -15 27 37 0 48 -7 53 -33 23 -12 -15 -29 -20 -62 -20
l-46 0 3 58 3 57 52 3 c46 3 56 0 77 -22 31 -34 36 -33 36 9 0 19 -3 34 -7 33
-5 -1 -64 -5 -133 -8z"/>
<path d="M2278 2634 c-34 -18 -46 -59 -27 -93 8 -13 41 -41 73 -60 69 -43 86
-63 70 -88 -29 -46 -106 -34 -134 22 l-15 30 -3 -39 c-4 -44 3 -51 58 -60 72
-11 140 25 140 75 0 44 -9 56 -63 90 -58 36 -97 69 -97 80 0 17 34 39 61 39
28 0 52 -17 76 -56 10 -17 12 -15 12 18 1 32 -3 37 -30 47 -43 15 -88 13 -121
-5z"/>
<path d="M2603 2640 c-12 -5 -29 -20 -39 -34 -27 -43 -12 -70 69 -123 81 -54
94 -81 53 -108 -37 -25 -83 -11 -108 31 -11 19 -22 34 -24 34 -2 0 -4 -18 -4
-39 0 -39 1 -39 48 -50 74 -16 133 3 152 48 18 45 -2 76 -80 126 -56 36 -70
50 -70 70 0 52 93 44 120 -10 l15 -30 3 34 c2 18 -1 38 -6 43 -13 13 -104 19
-129 8z"/>
<path d="M2970 2640 c-78 -3 -117 -8 -104 -13 28 -10 34 -33 34 -132 0 -99 -6
-121 -33 -131 -14 -5 27 -9 107 -11 71 -2 133 0 136 4 12 14 20 73 10 73 -6 0
-10 -4 -10 -10 0 -5 -9 -19 -20 -30 -15 -15 -33 -20 -75 -20 -50 0 -56 2 -65
26 -6 14 -10 41 -10 60 l0 34 51 0 c40 0 55 -5 70 -22 l18 -23 1 53 c0 56 -7
64 -28 31 -11 -16 -21 -20 -60 -17 l-47 3 0 55 0 55 64 0 c38 0 66 -5 68 -11
2 -6 10 -20 18 -30 13 -17 14 -16 15 24 0 23 -3 41 -7 40 -5 -1 -64 -5 -133
-8z"/>
<path d="M3723 2640 c-12 -5 -29 -20 -39 -34 -27 -43 -12 -70 69 -123 81 -54
94 -81 53 -108 -37 -25 -83 -11 -108 31 -11 19 -22 34 -24 34 -2 0 -4 -18 -4
-39 0 -39 1 -39 48 -50 74 -16 133 3 152 48 18 45 -2 76 -80 126 -56 36 -70
50 -70 70 0 52 93 44 120 -10 l15 -30 3 34 c2 18 -1 38 -6 43 -13 13 -104 19
-129 8z"/>
<path d="M1495 2629 c32 -20 35 -29 35 -131 0 -104 -5 -128 -25 -128 -8 0 -17
-4 -20 -10 -4 -6 20 -10 64 -10 41 0 71 4 71 10 0 6 -9 10 -20 10 -18 0 -20 7
-20 60 0 77 17 79 63 8 52 -80 97 -110 133 -90 15 9 15 10 -5 17 -12 4 -43 34
-67 68 -45 61 -45 61 -22 70 58 21 77 77 37 113 -18 16 -39 19 -133 22 -89 2
-107 0 -91 -9z m178 -31 c9 -11 17 -26 17 -34 0 -26 -39 -54 -75 -54 l-35 0 0
61 0 61 38 -6 c20 -4 45 -16 55 -28z"/>
<path d="M3238 2620 l33 -20 -3 -108 c-3 -100 -4 -108 -25 -117 -38 -17 -26
-25 37 -25 58 0 84 15 38 22 -22 3 -23 8 -25 103 l-3 100 108 -113 c59 -62
112 -112 118 -112 7 0 9 40 6 119 l-4 120 27 25 28 26 -64 0 c-62 -1 -63 -1
-36 -16 26 -14 27 -17 27 -105 l0 -91 -101 106 c-100 105 -102 106 -148 106
l-46 0 33 -20z"/>
<path d="M1260 2080 l0 -70 34 0 c46 0 77 27 78 68 1 45 -26 72 -74 72 l-38 0
0 -70z m82 43 c40 -36 9 -103 -49 -103 -21 0 -23 4 -23 60 0 58 1 60 27 60 14
0 35 -7 45 -17z"/>
<path d="M1430 2080 l0 -70 53 2 52 1 -45 6 c-40 5 -45 9 -45 31 0 21 6 26 35
31 l35 6 -37 2 c-33 1 -38 4 -38 25 0 22 5 25 43 29 l42 4 -47 1 -48 2 0 -70z"/>
<path d="M1572 2142 c2 -4 14 -35 28 -70 14 -34 29 -61 33 -59 12 4 68 137 58
137 -5 0 -20 -28 -34 -62 l-24 -61 -24 61 c-13 34 -28 62 -32 62 -5 0 -7 -3
-5 -8z"/>
<path d="M1750 2080 l0 -70 48 2 47 1 -42 4 c-40 4 -43 6 -43 33 0 26 4 29 38
33 l37 4 -37 1 c-33 2 -38 5 -38 26 0 22 5 25 43 29 l42 4 -47 1 -48 2 0 -70z"/>
<path d="M1902 2083 l-2 -73 53 2 52 1 -45 6 -45 6 -6 65 -6 65 -1 -72z"/>
<path d="M2057 2132 c-23 -25 -21 -78 3 -102 27 -27 62 -25 88 3 43 46 17 117
-42 117 -19 0 -40 -8 -49 -18z m91 -24 c10 -22 10 -32 1 -50 -23 -43 -48 -49
-79 -18 -24 24 -26 57 -3 82 24 27 65 20 81 -14z"/>
<path d="M2231 2078 c1 -40 4 -61 6 -45 4 22 9 27 33 27 48 0 78 48 48 78 -7
7 -29 12 -50 12 l-38 0 1 -72z m77 30 c3 -26 1 -28 -32 -28 -33 0 -36 2 -36
31 0 28 2 30 33 27 27 -2 33 -8 35 -30z"/>
<path d="M2381 2078 c1 -40 4 -61 6 -45 3 21 10 27 29 27 38 0 64 18 64 43 0
33 -19 47 -62 47 l-38 0 1 -72z m78 48 c19 -23 2 -46 -35 -46 -31 0 -34 3 -34
30 0 26 3 30 29 30 16 0 34 -6 40 -14z"/>
<path d="M2540 2080 l0 -70 48 2 47 1 -42 4 c-40 4 -43 6 -43 33 0 26 4 29 38
33 l37 4 -37 1 c-33 2 -38 5 -38 26 0 22 5 25 43 29 l42 4 -47 1 -48 2 0 -70z"/>
<path d="M2691 2098 c-1 -62 14 -88 53 -88 41 0 59 23 64 84 3 37 1 56 -7 56
-7 0 -11 -19 -11 -49 0 -49 -17 -81 -43 -81 -29 1 -42 22 -48 77 l-6 58 -2
-57z"/>
<path d="M2869 2134 c-18 -22 -2 -45 42 -59 19 -7 35 -19 37 -28 4 -21 -39
-32 -67 -17 -12 6 -21 7 -21 1 0 -26 85 -29 99 -2 13 24 -5 49 -44 59 -20 6
-30 15 -30 28 0 16 7 19 37 18 21 -1 35 3 32 7 -9 15 -71 10 -85 -7z"/>
<path d="M3020 2080 l0 -70 53 2 52 1 -45 6 c-40 5 -45 9 -45 31 0 21 6 26 35
31 l35 6 -37 2 c-33 1 -38 4 -38 25 0 22 5 25 43 29 l42 4 -47 1 -48 2 0 -70z"/>
<path d="M3240 2146 c0 -2 14 -35 31 -73 28 -64 31 -67 45 -49 8 11 14 26 14
33 0 24 18 13 29 -17 5 -16 14 -30 18 -30 4 0 19 28 33 62 14 35 27 66 28 70
2 5 0 8 -5 8 -4 0 -19 -28 -32 -62 l-25 -63 -13 32 c-9 23 -10 40 -3 59 6 15
8 29 5 32 -2 3 -8 -6 -13 -19 l-9 -23 -12 23 c-16 30 -25 21 -11 -11 9 -19 8
-32 -2 -59 l-14 -34 -25 63 c-13 34 -27 62 -31 62 -5 0 -8 -2 -8 -4z"/>
<path d="M3490 2080 l0 -70 53 2 c50 1 50 2 10 5 -40 4 -43 6 -43 33 0 26 4
29 38 33 l37 4 -37 1 c-33 2 -38 5 -38 26 0 22 5 25 43 29 40 3 40 4 -10 5
l-53 2 0 -70z"/>
<path d="M3650 2079 l0 -70 41 3 c49 3 71 27 53 56 -8 12 -8 22 -1 34 17 26
-9 48 -54 48 l-39 0 0 -71z m75 36 c0 -15 -8 -21 -32 -23 -30 -3 -33 -1 -33
23 0 24 3 26 33 23 24 -2 32 -8 32 -23z m5 -50 c18 -21 -4 -45 -41 -45 -26 0
-29 4 -29 30 0 26 3 30 29 30 16 0 34 -7 41 -15z"/>
<path d="M1955 1860 c-3 -6 -4 -19 0 -29 3 -11 0 -29 -7 -40 -22 -35 0 -56 60
-56 40 -1 49 2 41 12 -6 6 -8 22 -4 35 5 21 5 21 -8 6 -13 -16 -15 -16 -30 -1
-15 16 -15 18 -1 35 9 9 14 24 11 33 -7 17 -52 21 -62 5z m49 -9 c3 -5 -1 -15
-10 -22 -13 -10 -17 -10 -24 1 -5 8 -6 18 -4 22 7 11 31 10 38 -1z m10 -102
c-8 -14 -40 -10 -54 6 -10 12 -10 18 0 30 12 14 16 13 36 -6 13 -12 21 -26 18
-30z"/>
<path d="M2192 1798 l1 -73 6 60 6 60 24 -42 c14 -24 28 -43 33 -43 4 0 18 19
30 43 l23 42 6 -60 6 -60 1 73 c1 39 -2 72 -7 72 -4 0 -19 -20 -32 -44 -13
-25 -27 -42 -31 -40 -5 3 -17 23 -28 45 -11 21 -25 39 -30 39 -6 0 -9 -31 -8
-72z"/>
<path d="M2406 1848 c-34 -49 -5 -118 49 -118 54 0 83 69 49 118 -10 15 -25
22 -49 22 -24 0 -39 -7 -49 -22z m90 -13 c21 -32 11 -72 -20 -86 -50 -23 -93
38 -61 87 21 32 60 32 81 -1z"/>
<path d="M2580 1800 l0 -70 45 0 c52 0 74 24 50 56 -9 13 -10 23 -3 31 5 7 7
21 3 33 -5 16 -15 20 -51 20 l-44 0 0 -70z m80 35 c0 -22 -4 -25 -35 -25 -31
0 -35 3 -35 25 0 22 4 25 35 25 31 0 35 -3 35 -25z m-6 -41 c9 -3 16 -14 16
-24 0 -20 -19 -30 -56 -30 -18 0 -24 5 -24 23 0 13 3 27 7 30 8 9 36 9 57 1z"/>
<path d="M2743 1800 c0 -41 2 -58 4 -37 2 20 2 54 0 75 -2 20 -4 3 -4 -38z"/>
<path d="M2822 1803 l-2 -73 53 2 52 1 -45 6 -45 6 -6 65 -6 65 -1 -72z"/>
<path d="M2970 1800 l0 -70 48 2 47 1 -42 4 c-40 4 -43 6 -43 33 0 26 4 29 38
33 l37 4 -37 1 c-33 2 -38 5 -38 26 0 22 5 25 43 29 l42 4 -47 1 -48 2 0 -70z"/>
</g>
</svg>
